<svg width="49" height="41" viewBox="0 0 49 41" fill="none" xmlns="http://www.w3.org/2000/svg">
<path d="M22.5 1C17.6606 1.30334 13.1224 3.35692 9.5 6.88233L15.1022 13C17.2104 11.0833 19.7703 9.92508 22.5 9.65272V1Z" fill="#CFD3FF" stroke="#5555FF" stroke-width="2" stroke-linecap="round" stroke-linejoin="round"/>
<path d="M13.5 15.0328L7.89568 9C4.66328 12.8998 2.77965 17.7873 2.5 23H10.4271C10.6783 20.0599 11.7416 17.3029 13.5 15.0328Z" fill="#CFD3FF" stroke="#5555FF" stroke-width="2" stroke-linecap="round" stroke-linejoin="round"/>
<path d="M38.5729 23H46.5C46.2203 17.7873 44.3368 12.8998 41.1043 9L35.5 15.0328C37.2584 17.3029 38.3217 20.0599 38.5729 23Z" fill="#CFD3FF" stroke="#5555FF" stroke-width="2" stroke-linecap="round" stroke-linejoin="round"/>
<path d="M38.0091 25C37.8206 27.0291 37.2295 28.7215 36.5304 30.079C37.2124 31.1093 37.781 31.98 38.1566 32.5583C39.1795 34.1332 38.9531 36.1548 37.6058 37.4747C37.2786 37.7952 36.905 38.0534 36.5 38.2443L37.8976 39.6135C38.1606 39.8712 38.5054 40 38.8501 40C39.1949 40 39.5397 39.8712 39.8026 39.6135C43.8302 35.6684 46.1786 30.5204 46.5 25H38.0091Z" fill="#CFD3FF" stroke="#5555FF" stroke-width="2" stroke-linecap="round" stroke-linejoin="round"/>
<path d="M10.9409 25H2.5C2.81951 30.5204 5.15411 35.6683 9.15783 39.6135C9.41932 39.8712 9.762 40 10.1047 40C10.4474 40 10.7901 39.8711 11.0516 39.6135L15.1078 35.6161C15.6307 35.1007 15.6307 34.2651 15.1078 33.7498C14.0493 32.7067 11.383 29.7863 10.9409 25Z" fill="#CFD3FF" stroke="#5555FF" stroke-width="2" stroke-linecap="round" stroke-linejoin="round"/>
<path d="M38.5 6.88233C34.8776 3.35682 30.3394 1.30334 25.5 1V9.65272C28.2296 9.92508 30.7896 11.0833 32.8978 13L38.5 6.88233Z" fill="#CFD3FF" stroke="#5555FF" stroke-width="2" stroke-linecap="round" stroke-linejoin="round"/>
<path d="M27.3795 20.2524C25.8078 18.5825 23.2504 18.5825 21.6788 20.2524C20.1071 21.9224 20.1071 24.6396 21.6788 26.3095C23.6643 28.4191 33.4222 35.039 34.5284 35.7869C35.0356 36.1299 35.699 36.0525 36.1242 35.6008C36.5494 35.149 36.6222 34.4442 36.2994 33.9051C35.5954 32.7299 29.365 22.362 27.3795 20.2524Z" fill="#DDDDFF" stroke="#5555FF" stroke-width="2"/>
</svg>
